# xmcd
#
# Track frame offsets:
#	150
#	24262
#	42335
#	55726
#	69715
#	86883
#	113625
#	139951
#	156502
#	170595
#	183444
#	196639
#	231340
#	244402
#	269359
#	297372
#	310627
#	327075
#
# Disc length: 4691 seconds
#
# Revision: 0
# Processed by: cddbd v1.5.2PL0 Copyright (c) Steve Scherf et al.
# Submitted via: EasyCDDAExtractor 16.0.0.1
#
DISCID=06125112
DTITLE=Sly's Stone Flower - I'm Just Like You 1969-70
DYEAR=1900
DGENRE=
TTITLE0=You're the One (Pts. 1&2)
TTITLE1=Just Like a Baby
TTITLE2=Home Sweet Home (Pt.2)
TTITLE3=I'm Just Like You
TTITLE4=Somebody's Watching You (Band Version)
TTITLE5=Life and Death in G and A (Pts. 1 and 2)
TTITLE6=Trying to Make You Feel Good
TTITLE7=Stanga
TTITLE8=Dynamite
TTITLE9=You're the One (Early Version)
TTITLE10=I'm Goin' Home (Pt. 1)
TTITLE11=Africa
TTITLE12=Somebody's Watching You
TTITLE13=You Can, We Can
TTITLE14=I'm Just Like You (Band Version)
TTITLE15=Spirit
TTITLE16=Dynamite (Alt. Version)
TTITLE17=Scared
EXTD=
EXTT0=
EXTT1=
EXTT2=
EXTT3=
EXTT4=
EXTT5=
EXTT6=
EXTT7=
EXTT8=
EXTT9=
EXTT10=
EXTT11=
EXTT12=
EXTT13=
EXTT14=
EXTT15=
EXTT16=
EXTT17=
PLAYORDER=
